<mxfile host="app.diagrams.net" modified="2022-03-23T15:04:14.618Z" agent="5.0 (Macintosh; Intel Mac OS X 10_15_7) AppleWebKit/537.36 (KHTML, like Gecko) Chrome/99.0.4844.83 Safari/537.36" etag="NWUj0qFztQgLrnrHGsW4" version="17.2.1" type="github">
  <diagram id="U85HbXs-UAMc0zENvWai" name="Page-1">
    <mxGraphModel dx="1059" dy="742" grid="0" gridSize="10" guides="1" tooltips="1" connect="1" arrows="1" fold="1" page="0" pageScale="1" pageWidth="850" pageHeight="1100" math="0" shadow="0">
      <root>
        <mxCell id="0" />
        <mxCell id="1" parent="0" />
        <mxCell id="pGZKY3n1eDW_OuX1hCaS-1" value="Bank" style="swimlane;fontStyle=0;childLayout=stackLayout;horizontal=1;startSize=26;horizontalStack=0;resizeParent=1;resizeParentMax=0;resizeLast=0;collapsible=1;marginBottom=0;align=center;fontSize=14;sketch=1;hachureGap=4;fontFamily=Architects Daughter;fontSource=https%3A%2F%2Ffonts.googleapis.com%2Fcss%3Ffamily%3DArchitects%2BDaughter;fillColor=#cce5ff;strokeColor=#36393d;" vertex="1" parent="1">
          <mxGeometry x="-113" y="36" width="269" height="134" as="geometry">
            <mxRectangle x="-113" y="36" width="60" height="26" as="alternateBounds" />
          </mxGeometry>
        </mxCell>
        <mxCell id="pGZKY3n1eDW_OuX1hCaS-2" value="_id:: ObjectId&#xa;name: String&#xa;location: String&#xa;routing: Integer&#xa;&#xa;customers: ObjectId(Ref=customers)" style="text;strokeColor=#36393d;fillColor=#cce5ff;spacingLeft=4;spacingRight=4;overflow=hidden;rotatable=0;points=[[0,0.5],[1,0.5]];portConstraint=eastwest;fontSize=12;sketch=1;hachureGap=4;fontFamily=Architects Daughter;fontSource=https%3A%2F%2Ffonts.googleapis.com%2Fcss%3Ffamily%3DArchitects%2BDaughter;" vertex="1" parent="pGZKY3n1eDW_OuX1hCaS-1">
          <mxGeometry y="26" width="269" height="108" as="geometry" />
        </mxCell>
        <mxCell id="pGZKY3n1eDW_OuX1hCaS-5" value="Customers" style="swimlane;fontStyle=0;childLayout=stackLayout;horizontal=1;startSize=26;horizontalStack=0;resizeParent=1;resizeParentMax=0;resizeLast=0;collapsible=1;marginBottom=0;align=center;fontSize=14;sketch=1;hachureGap=4;fontFamily=Architects Daughter;fontSource=https%3A%2F%2Ffonts.googleapis.com%2Fcss%3Ffamily%3DArchitects%2BDaughter;fillColor=#ffff88;strokeColor=#36393d;" vertex="1" parent="1">
          <mxGeometry x="269" y="43" width="238" height="125" as="geometry" />
        </mxCell>
        <mxCell id="pGZKY3n1eDW_OuX1hCaS-6" value="name: String&#xa;account: Interger&#xa;balance: Integer" style="text;strokeColor=#36393d;fillColor=#ffff88;spacingLeft=4;spacingRight=4;overflow=hidden;rotatable=0;points=[[0,0.5],[1,0.5]];portConstraint=eastwest;fontSize=12;sketch=1;hachureGap=4;fontFamily=Architects Daughter;fontSource=https%3A%2F%2Ffonts.googleapis.com%2Fcss%3Ffamily%3DArchitects%2BDaughter;" vertex="1" parent="pGZKY3n1eDW_OuX1hCaS-5">
          <mxGeometry y="26" width="238" height="99" as="geometry" />
        </mxCell>
        <mxCell id="pGZKY3n1eDW_OuX1hCaS-9" value="Accounts" style="swimlane;fontStyle=0;childLayout=stackLayout;horizontal=1;startSize=26;horizontalStack=0;resizeParent=1;resizeParentMax=0;resizeLast=0;collapsible=1;marginBottom=0;align=center;fontSize=14;sketch=1;hachureGap=4;fontFamily=Architects Daughter;fontSource=https%3A%2F%2Ffonts.googleapis.com%2Fcss%3Ffamily%3DArchitects%2BDaughter;fillColor=#ffcc99;strokeColor=#36393d;" vertex="1" parent="1">
          <mxGeometry x="614" y="43" width="215" height="151" as="geometry" />
        </mxCell>
        <mxCell id="pGZKY3n1eDW_OuX1hCaS-10" value="_id: ObjectId&#xa;name: String&#xa;type: enum&#xa;balance: Integer&#xa;active: boolean&#xa;credits: Integer&#xa;debits: Integer&#xa;owner: ObjectId(Ref=customer)" style="text;strokeColor=#36393d;fillColor=#ffcc99;spacingLeft=4;spacingRight=4;overflow=hidden;rotatable=0;points=[[0,0.5],[1,0.5]];portConstraint=eastwest;fontSize=12;sketch=1;hachureGap=4;fontFamily=Architects Daughter;fontSource=https%3A%2F%2Ffonts.googleapis.com%2Fcss%3Ffamily%3DArchitects%2BDaughter;" vertex="1" parent="pGZKY3n1eDW_OuX1hCaS-9">
          <mxGeometry y="26" width="215" height="125" as="geometry" />
        </mxCell>
        <mxCell id="pGZKY3n1eDW_OuX1hCaS-15" value="" style="edgeStyle=entityRelationEdgeStyle;fontSize=12;html=1;endArrow=ERoneToMany;startArrow=ERoneToMany;rounded=0;sketch=1;hachureGap=4;fontFamily=Architects Daughter;fontSource=https%3A%2F%2Ffonts.googleapis.com%2Fcss%3Ffamily%3DArchitects%2BDaughter;startSize=14;endSize=14;sourcePerimeterSpacing=8;targetPerimeterSpacing=8;curved=1;entryX=-0.019;entryY=0.816;entryDx=0;entryDy=0;entryPerimeter=0;exitX=0.992;exitY=0.404;exitDx=0;exitDy=0;exitPerimeter=0;" edge="1" parent="1" source="pGZKY3n1eDW_OuX1hCaS-6" target="pGZKY3n1eDW_OuX1hCaS-10">
          <mxGeometry width="100" height="100" relative="1" as="geometry">
            <mxPoint x="505" y="115" as="sourcePoint" />
            <mxPoint x="605" y="15" as="targetPoint" />
          </mxGeometry>
        </mxCell>
        <mxCell id="pGZKY3n1eDW_OuX1hCaS-18" value="" style="edgeStyle=entityRelationEdgeStyle;fontSize=12;html=1;endArrow=ERoneToMany;startArrow=ERmandOne;rounded=0;sketch=1;hachureGap=4;fontFamily=Architects Daughter;fontSource=https%3A%2F%2Ffonts.googleapis.com%2Fcss%3Ffamily%3DArchitects%2BDaughter;startSize=14;endSize=14;sourcePerimeterSpacing=8;targetPerimeterSpacing=8;curved=1;entryX=-0.023;entryY=0.818;entryDx=0;entryDy=0;entryPerimeter=0;exitX=1.002;exitY=0.25;exitDx=0;exitDy=0;exitPerimeter=0;" edge="1" parent="1" source="pGZKY3n1eDW_OuX1hCaS-2" target="pGZKY3n1eDW_OuX1hCaS-6">
          <mxGeometry width="100" height="100" relative="1" as="geometry">
            <mxPoint x="154" y="139" as="sourcePoint" />
            <mxPoint x="254" y="39" as="targetPoint" />
          </mxGeometry>
        </mxCell>
      </root>
    </mxGraphModel>
  </diagram>
</mxfile>
